# xmcd
#
# Track frame offsets: 
#        182
#        22225
#        44785
#        67877
#
# Disc length: 1111 seconds
#
# Revision: 0
# Processed by: cddbd v1.5.2PL0 Copyright (c) Steve Scherf et al.
# Submitted via: ExactAudioCopy v1.0b3
#
DISCID=36045504
DTITLE=Wintermute - Hands Of Fate
DYEAR=1900
DGENRE=
TTITLE0=Hands Of Fate (Coffee Sound)
TTITLE1=Hands Of Fate (Original Mix)
TTITLE2=Hands Of Fate (Hard Remix)
TTITLE3=Hands Of Fate (Radio Edit)
EXTD=
EXTT0=
EXTT1=
EXTT2=
EXTT3=
PLAYORDER=
